<svg width="220" height="220" viewBox="0 0 220 220" fill="none" xmlns="http://www.w3.org/2000/svg">
  <defs>
    <linearGradient id="body" x1="28" y1="24" x2="192" y2="192" gradientUnits="userSpaceOnUse">
      <stop stop-color="#C4B5FD"/>
      <stop offset="0.55" stop-color="#8B5CF6"/>
      <stop offset="1" stop-color="#3B82F6"/>
    </linearGradient>
    <linearGradient id="detail" x1="40" y1="32" x2="176" y2="48" gradientUnits="userSpaceOnUse">
      <stop stop-color="#E9D5FF" stop-opacity="0.95"/>
      <stop offset="1" stop-color="#93C5FD" stop-opacity="0.6"/>
    </linearGradient>
  </defs>
  <path d="M110 58C156 58 197 77 210 110C193 122 159 131 128 132C121 148 113 160 110 164C107 160 99 148 92 132C61 131 27 122 10 110C23 77 64 58 110 58Z" fill="url(#body)"/>
  <path d="M92 61C84 48 91 35 101 33C106 34 107 44 103 53L100 61H92Z" fill="url(#detail)"/>
  <path d="M128 61C136 48 129 35 119 33C114 34 113 44 117 53L120 61H128Z" fill="url(#detail)"/>
  <path d="M110 74C140 74 169 87 182 111C162 119 136 123 110 123C84 123 58 119 38 111C51 87 80 74 110 74Z" fill="white" fill-opacity="0.17"/>
  <path d="M110 166C110 190 92 202 67 210C61 212 62 216 69 216C103 216 127 195 127 166H110Z" fill="url(#detail)"/>
</svg>
